PathFileType	3	(X/Y/Z)	D:\Vicon Setup\UG\Test1\New Session\NewSession15.trc
DataRate	CameraRate	NumFrames	NumMarkers	Units	OrigDataRate	OrigDataStartFrame	OrigNumFrames
100.0	100.0	8	27	mm	100.0	451	359	
Frame#	Time	Sternum			LShoulder			RShoulder			LASIS			RASIS			RPSIS			LPSIS			RKneeLateral			RKneeMedial			RFibulaHead			RMidShank			RAnkleLateral			RAnkleMedial			RHeel			RMT5			RMT2			RToe			LKneeLateral			LKneeMedial			LFibulaHead			LMidShank			LAnkleLateral			LAnkleMedial			LHeel			LMT5			LMT2			LToe			
		X1	Y1	Z1	X2	Y2	Z2	X3	Y3	Z3	X4	Y4	Z4	X5	Y5	Z5	X6	Y6	Z6	X7	Y7	Z7	X8	Y8	Z8	X9	Y9	Z9	X10	Y10	Z10	X11	Y11	Z11	X12	Y12	Z12	X13	Y13	Z13	X14	Y14	Z14	X15	Y15	Z15	X16	Y16	Z16	X17	Y17	Z17	X18	Y18	Z18	X19	Y19	Z19	X20	Y20	Z20	X21	Y21	Z21	X22	Y22	Z22	X23	Y23	Z23	X24	Y24	Z24	X25	Y25	Z25	X26	Y26	Z26	X27	Y27	Z27	
451	4.5	-228.42685	1339.1346	-1063.4463	-35.597134	1431.0919	-1129.4467	-344.63684	1349.0112	-1237.3612	-98.324898	942.74011	-971.1189	-335.60287	956.13391	-1075.6661	-196.16141	965.71826	-1203.4385	-76.200081	962.43591	-1154.9205	-449.63138	542.76788	-1251.5172	-358.50311	467.63641	-1197.1665	-452.46054	510.62836	-1309.0564	-342.37186	416.32373	-1420.4636	-309.54803	462.44562	-1622.7306	-285.89145	377.68716	-1577.7775	-214.39941	461.12891	-1643.9012	-434.89124	376.87115	-1669.2361	-390.4389	330.01767	-1633.0233	-423.75061	305.67093	-1634.7063	-77.225754	511.90518	-817.05011	-204.51126	497.68631	-838.54865	-72.551262	450.70557	-812.31097	-160.15353	299.14111	-803.68915	-91.398796	102.20145	-862.39795	-182.20456	119.238	-833.39795	-145.24156	68.266006	-943.50305	-68.137863	40.795849	-730.10815	-138.85437	57.039879	-712.9989	-146.84402	39.772045	-671.94275
452	4.51	-230.7662	1335.2479	-1048.0599	-35.425282	1427.1057	-1112.4974	-345.67932	1343.3103	-1223.4268	-91.040016	941.49982	-956.66565	-332.06403	949.33801	-1060.3928	-197.55334	959.50415	-1191.7126	-76.972191	961.54596	-1144.7864	-451.35965	531.08215	-1213.7219	-358.37909	460.09134	-1158.3561	-453.59143	499.341	-1269.3209	-342.80087	404.87387	-1378.9906	-310.3931	448.23062	-1581.7747	-286.21344	364.27332	-1535.2466	-215.81114	445.25446	-1605.9281	-438.19504	363.29025	-1621.5375	-394.68283	318.21713	-1585.2104	-426.2464	292.79517	-1586.1185	-79.7939	516.15094	-795.84247	-203.11551	503.1091	-829.52295	-74.650436	453.25635	-793.58844	-159.55629	300.4924	-795.51996	-90.444687	102.31543	-861.87415	-181.20236	119.62946	-830.52008	-144.26466	68.350647	-943.52814	-67.830124	40.674915	-730.02631	-138.51183	57.296207	-712.88092	-146.73495	39.934296	-672.05981
453	4.52	-233.21381	1333.3167	-1034.0841	-35.713875	1424.2684	-1095.3643	-347.0556	1339.2692	-1210.9425	-84.364586	943.44849	-942.80426	-326.88837	944.328	-1045.2108	-197.4326	955.84821	-1180.6913	-75.507523	959.41302	-1133.4052	-452.65665	522.1001	-1173.8256	-358.14001	454.85513	-1116.3346	-454.79395	489.29126	-1227.434	-343.63232	391.76743	-1333.8932	-309.73654	428.65152	-1537.2007	-286.69421	345.72849	-1487.8521	-215.61226	422.24216	-1562.9532	-440.07861	345.90128	-1570.9312	-397.65054	301.20761	-1533.8077	-429.45285	276.58334	-1533.3212	-81.657753	516.90234	-777.55078	-203.48564	508.12375	-812.78845	-73.918907	453.02032	-782.66949	-159.52119	299.88968	-790.70361	-90.226913	102.06557	-861.5484	-181.51935	119.13061	-831.83929	-143.85904	67.940392	-943.70062	-67.898903	40.741055	-730.08984	-138.73721	57.329483	-713.14899	-146.85603	39.968929	-672.20386
454	4.53	-235.67882	1332.1282	-1022.1581	-36.578033	1422.1324	-1078.6949	-348.1669	1336.2278	-1200.2323	-80.095947	947.97327	-930.50684	-321.99414	941.79266	-1031.8883	-195.14691	953.31018	-1168.8456	-73.553825	959.06696	-1121.41	-452.99469	516.68085	-1132.8425	-359.14175	451.39987	-1070.7677	-455.30847	481.29123	-1183.7159	-344.78564	377.53781	-1285.4323	-307.41818	403.98206	-1488.9414	-286.84387	323.63516	-1435.1368	-213.47496	392.33533	-1514.4752	-441.05225	324.95877	-1517.7974	-400.37781	280.49924	-1478.4097	-432.953	257.13522	-1476.2751	-79.379639	512.8501	-767.95544	-203.23839	508.69107	-792.10962	-70.750763	449.69299	-776.28625	-159.01633	296.99371	-786.60425	-90.007828	101.68893	-861.58734	-181.52164	118.77744	-831.26898	-143.59189	67.693504	-943.86755	-67.899994	40.759583	-730.18097	-138.72815	57.423321	-713.27747	-146.84389	40.037621	-672.31476
455	4.54	-238.19498	1331.0757	-1011.855	-37.701107	1421.2653	-1062.5623	-348.5224	1333.7778	-1191.2224	-77.669792	953.20197	-919.45087	-318.86636	942.10492	-1019.642	-190.97771	951.59607	-1156.8273	-70.166664	959.26062	-1108.8141	-453.30713	513.80273	-1091.4219	-361.60971	449.59216	-1022.765	-454.70459	475.79572	-1139.2521	-346.06427	362.8877	-1233.6189	-303.85623	374.63007	-1436.5071	-287.17358	296.65823	-1376.509	-210.25862	356.98129	-1460.5066	-440.85925	300.17941	-1460.6614	-402.0871	256.70667	-1417.7404	-436.31442	235.84459	-1414.3229	-74.037277	507.92282	-762.59698	-198.41844	502.66321	-780.47638	-67.094543	444.59329	-771.0423	-157.37251	294.12173	-784.43457	-89.509056	101.40729	-861.22369	-181.19698	118.89818	-830.46423	-143.69937	67.832527	-943.78845	-67.819725	40.716843	-730.2569	-138.49509	57.598881	-713.15851	-146.75528	40.061596	-672.35614
456	4.55	-240.76344	1330.0996	-1002.8527	-39.686665	1421.3079	-1047.228	-348.73764	1331.66	-1184.1523	-75.99501	958.23175	-909.08179	-315.93283	943.67035	-1009.3001	-185.92574	950.18341	-1145.011	-66.052513	960.2442	-1096.2347	-453.31003	513.30457	-1050.0819	-365.86188	451.74973	-973.94318	-453.22678	472.96658	-1094.7947	-347.57068	348.33002	-1178.906	-299.61584	341.39005	-1379.2755	-287.3179	268.63309	-1312.1244	-206.88084	316.99054	-1400.0497	-440.08737	271.9751	-1398.7372	-403.66898	230.43848	-1351.782	-439.03528	211.78438	-1346.9502	-67.644455	504.18246	-759.94196	-193.9006	497.4653	-777.21411	-62.222965	440.46387	-767.27167	-154.73262	292.81873	-781.91791	-89.011024	101.28737	-861.26129	-179.92628	119.55505	-830.21558	-143.46742	68.217316	-943.66504	-67.393051	40.512672	-730.3374	-138.00487	57.605938	-713.34766	-146.43378	40.1497	-672.51715
457	4.56	-243.55669	1329.4769	-995.08295	-42.439182	1422.1895	-1032.7275	-349.10779	1329.9286	-1178.2559	-73.646736	963.59235	-897.90784	-313.54944	946.19275	-1000.1196	-180.62047	948.79584	-1133.5144	-61.457047	961.11682	-1083.6083	-452.26614	515.75696	-1009.5511	-367.49884	457.81693	-925.55798	-450.45285	472.11975	-1050.7959	-349.15125	334.63348	-1120.8046	-295.36172	305.06607	-1316.6227	-288.17316	239.3175	-1241.641	-203.50148	274.2543	-1332.446	-438.64783	241.10121	-1332.2386	-405.29266	202.6198	-1280.3555	-442.05371	186.91417	-1274.0052	-61.211506	502.59906	-758.30511	-189.58105	495.91632	-776.36621	-57.148922	438.9046	-765.11041	-150.73282	293.16788	-778.87109	-87.361763	101.39238	-861.30853	-178.14658	120.19642	-829.45099	-142.97404	68.638756	-943.69	-66.737328	40.267101	-730.41278	-137.22055	57.673939	-713.48407	-145.93515	40.429028	-672.67694
458	4.57	-247.36984	1330.025	-987.03302	-45.535126	1423.618	-1019.0099	-349.3187	1328.2616	-1172.5286	-72.364586	968.53845	-886.36371	-311.52338	949.03571	-991.73401	-175.43195	947.47522	-1122.1957	-57.085587	962.08051	-1071.8649	-450.32053	520.47192	-970.67548	-368.78156	468.7861	-879.20032	-446.41501	472.62958	-1008.0296	-349.33533	323.48367	-1058.8794	-291.57626	267.25366	-1248.2494	-290.02301	210.66658	-1165.4275	-200.44771	230.26501	-1256.2277	-437.25455	208.51007	-1260.9642	-407.40576	175.46179	-1203.4347	-445.48285	162.35764	-1196.9341	-54.766266	502.38382	-755.15234	-183.40839	495.20764	-775.96539	-51.363155	439.45999	-763.27606	-145.7168	293.70718	-776.35077	-86.216026	101.2197	-860.95172	-176.52199	120.85927	-828.78162	-143.13785	69.081161	-943.40076	-66.13459	40.070919	-730.51172	-136.4547	57.85397	-713.57666	-145.44199	40.644291	-672.88904
